<?xml version="1.0" standalone="no"?>
<svg xmlns:xlink="http://www.w3.org/1999/xlink" id="wave" style="transform:rotate(180deg); transition: 0.3s" viewBox="0 0 1440 330" version="1.1" xmlns="http://www.w3.org/2000/svg"><defs><linearGradient id="sw-gradient-0" x1="0" x2="0" y1="1" y2="0"><stop stop-color="rgba(239, 238, 232, 1)" offset="0%"/><stop stop-color="rgba(211, 218, 224, 1)" offset="100%"/></linearGradient></defs><path style="transform:translate(0, 0px); opacity:1" fill="url(#sw-gradient-0)" d="M0,198L24,209C48,220,96,242,144,209C192,176,240,88,288,71.5C336,55,384,110,432,137.5C480,165,528,165,576,187C624,209,672,253,720,269.5C768,286,816,275,864,231C912,187,960,110,1008,104.5C1056,99,1104,165,1152,192.5C1200,220,1248,209,1296,170.5C1344,132,1392,66,1440,77C1488,88,1536,176,1584,209C1632,242,1680,220,1728,198C1776,176,1824,154,1872,126.5C1920,99,1968,66,2016,82.5C2064,99,2112,165,2160,165C2208,165,2256,99,2304,99C2352,99,2400,165,2448,198C2496,231,2544,231,2592,231C2640,231,2688,231,2736,242C2784,253,2832,275,2880,275C2928,275,2976,253,3024,247.5C3072,242,3120,253,3168,247.5C3216,242,3264,220,3312,225.5C3360,231,3408,264,3432,280.5L3456,297L3456,330L3432,330C3408,330,3360,330,3312,330C3264,330,3216,330,3168,330C3120,330,3072,330,3024,330C2976,330,2928,330,2880,330C2832,330,2784,330,2736,330C2688,330,2640,330,2592,330C2544,330,2496,330,2448,330C2400,330,2352,330,2304,330C2256,330,2208,330,2160,330C2112,330,2064,330,2016,330C1968,330,1920,330,1872,330C1824,330,1776,330,1728,330C1680,330,1632,330,1584,330C1536,330,1488,330,1440,330C1392,330,1344,330,1296,330C1248,330,1200,330,1152,330C1104,330,1056,330,1008,330C960,330,912,330,864,330C816,330,768,330,720,330C672,330,624,330,576,330C528,330,480,330,432,330C384,330,336,330,288,330C240,330,192,330,144,330C96,330,48,330,24,330L0,330Z"/></svg>